<mxfile host="app.diagrams.net" modified="2023-11-17T15:31:40.226Z" agent="Mozilla/5.0 (Macintosh; Intel Mac OS X 10_15_7) AppleWebKit/537.36 (KHTML, like Gecko) Chrome/119.0.0.0 Safari/537.36" etag="XZmbzNxIOyf4CSKH7V2Y" version="22.1.3" type="github">
  <diagram name="Page-1" id="gYZL_dD1YHqg8UqiC46v">
    <mxGraphModel dx="1242" dy="700" grid="1" gridSize="10" guides="1" tooltips="1" connect="1" arrows="1" fold="1" page="1" pageScale="1" pageWidth="850" pageHeight="1100" math="0" shadow="0">
      <root>
        <mxCell id="0" />
        <mxCell id="1" parent="0" />
        <mxCell id="R--ykIY8JpI6ctm7pDDZ-4" value="Wifi" style="edgeStyle=orthogonalEdgeStyle;rounded=0;orthogonalLoop=1;jettySize=auto;html=1;exitX=1;exitY=0.25;exitDx=0;exitDy=0;entryX=0;entryY=0.25;entryDx=0;entryDy=0;startArrow=classic;startFill=1;" edge="1" parent="1" source="R--ykIY8JpI6ctm7pDDZ-1" target="R--ykIY8JpI6ctm7pDDZ-2">
          <mxGeometry relative="1" as="geometry" />
        </mxCell>
        <mxCell id="R--ykIY8JpI6ctm7pDDZ-6" value="Bluetooth" style="edgeStyle=orthogonalEdgeStyle;rounded=0;orthogonalLoop=1;jettySize=auto;html=1;exitX=1;exitY=0.75;exitDx=0;exitDy=0;entryX=0;entryY=0.75;entryDx=0;entryDy=0;startArrow=classic;startFill=1;" edge="1" parent="1" source="R--ykIY8JpI6ctm7pDDZ-1" target="R--ykIY8JpI6ctm7pDDZ-2">
          <mxGeometry relative="1" as="geometry" />
        </mxCell>
        <mxCell id="R--ykIY8JpI6ctm7pDDZ-1" value="BRAIN" style="rounded=1;whiteSpace=wrap;html=1;" vertex="1" parent="1">
          <mxGeometry x="80" y="190" width="240" height="260" as="geometry" />
        </mxCell>
        <mxCell id="R--ykIY8JpI6ctm7pDDZ-10" value="UEXT" style="edgeStyle=orthogonalEdgeStyle;rounded=0;orthogonalLoop=1;jettySize=auto;html=1;exitX=1;exitY=0.25;exitDx=0;exitDy=0;entryX=0;entryY=0.5;entryDx=0;entryDy=0;" edge="1" parent="1" source="R--ykIY8JpI6ctm7pDDZ-2" target="R--ykIY8JpI6ctm7pDDZ-3">
          <mxGeometry relative="1" as="geometry" />
        </mxCell>
        <mxCell id="R--ykIY8JpI6ctm7pDDZ-11" value="QWIIC" style="edgeStyle=orthogonalEdgeStyle;rounded=0;orthogonalLoop=1;jettySize=auto;html=1;exitX=1;exitY=0.5;exitDx=0;exitDy=0;entryX=0;entryY=0.5;entryDx=0;entryDy=0;" edge="1" parent="1" source="R--ykIY8JpI6ctm7pDDZ-2" target="R--ykIY8JpI6ctm7pDDZ-7">
          <mxGeometry relative="1" as="geometry" />
        </mxCell>
        <mxCell id="R--ykIY8JpI6ctm7pDDZ-12" value="STEMMA" style="edgeStyle=orthogonalEdgeStyle;rounded=0;orthogonalLoop=1;jettySize=auto;html=1;exitX=1;exitY=0.5;exitDx=0;exitDy=0;entryX=0;entryY=0.5;entryDx=0;entryDy=0;" edge="1" parent="1" source="R--ykIY8JpI6ctm7pDDZ-2" target="R--ykIY8JpI6ctm7pDDZ-8">
          <mxGeometry relative="1" as="geometry" />
        </mxCell>
        <mxCell id="R--ykIY8JpI6ctm7pDDZ-13" value="MicroBus" style="edgeStyle=orthogonalEdgeStyle;rounded=0;orthogonalLoop=1;jettySize=auto;html=1;exitX=1;exitY=0.75;exitDx=0;exitDy=0;entryX=0;entryY=0.5;entryDx=0;entryDy=0;" edge="1" parent="1" source="R--ykIY8JpI6ctm7pDDZ-2" target="R--ykIY8JpI6ctm7pDDZ-9">
          <mxGeometry relative="1" as="geometry" />
        </mxCell>
        <mxCell id="R--ykIY8JpI6ctm7pDDZ-15" value="Grove" style="edgeStyle=orthogonalEdgeStyle;rounded=0;orthogonalLoop=1;jettySize=auto;html=1;exitX=0.5;exitY=1;exitDx=0;exitDy=0;entryX=0;entryY=0.5;entryDx=0;entryDy=0;" edge="1" parent="1" source="R--ykIY8JpI6ctm7pDDZ-2" target="R--ykIY8JpI6ctm7pDDZ-14">
          <mxGeometry relative="1" as="geometry" />
        </mxCell>
        <mxCell id="R--ykIY8JpI6ctm7pDDZ-2" value="MCU" style="rounded=1;whiteSpace=wrap;html=1;" vertex="1" parent="1">
          <mxGeometry x="440" y="190" width="130" height="260" as="geometry" />
        </mxCell>
        <mxCell id="R--ykIY8JpI6ctm7pDDZ-3" value="Driver" style="rounded=0;whiteSpace=wrap;html=1;" vertex="1" parent="1">
          <mxGeometry x="670" y="190" width="120" height="60" as="geometry" />
        </mxCell>
        <mxCell id="R--ykIY8JpI6ctm7pDDZ-5" value="USB ACM" style="edgeStyle=orthogonalEdgeStyle;rounded=0;orthogonalLoop=1;jettySize=auto;html=1;exitX=1;exitY=0.5;exitDx=0;exitDy=0;entryX=0;entryY=0.5;entryDx=0;entryDy=0;startArrow=classic;startFill=1;" edge="1" parent="1" source="R--ykIY8JpI6ctm7pDDZ-1" target="R--ykIY8JpI6ctm7pDDZ-2">
          <mxGeometry relative="1" as="geometry">
            <mxPoint x="330" y="265" as="sourcePoint" />
            <mxPoint x="450" y="265" as="targetPoint" />
          </mxGeometry>
        </mxCell>
        <mxCell id="R--ykIY8JpI6ctm7pDDZ-7" value="" style="rounded=0;whiteSpace=wrap;html=1;" vertex="1" parent="1">
          <mxGeometry x="670" y="260" width="120" height="60" as="geometry" />
        </mxCell>
        <mxCell id="R--ykIY8JpI6ctm7pDDZ-8" value="" style="rounded=0;whiteSpace=wrap;html=1;" vertex="1" parent="1">
          <mxGeometry x="670" y="330" width="120" height="60" as="geometry" />
        </mxCell>
        <mxCell id="R--ykIY8JpI6ctm7pDDZ-9" value="" style="rounded=0;whiteSpace=wrap;html=1;" vertex="1" parent="1">
          <mxGeometry x="670" y="400" width="120" height="60" as="geometry" />
        </mxCell>
        <mxCell id="R--ykIY8JpI6ctm7pDDZ-14" value="" style="rounded=0;whiteSpace=wrap;html=1;" vertex="1" parent="1">
          <mxGeometry x="670" y="480" width="120" height="60" as="geometry" />
        </mxCell>
        <mxCell id="R--ykIY8JpI6ctm7pDDZ-16" value="" style="rounded=0;whiteSpace=wrap;html=1;" vertex="1" parent="1">
          <mxGeometry x="200" y="500" width="120" height="150" as="geometry" />
        </mxCell>
      </root>
    </mxGraphModel>
  </diagram>
</mxfile>
